<svg width="248" height="106" viewBox="0 0 248 106" fill="none" xmlns="http://www.w3.org/2000/svg">
<rect width="248" height="106" fill="white"/>
<path d="M53.752 33.912H58.848V73H53.752V55.864H32.528V73H27.432V33.912H32.528V51.104H53.752V33.912ZM65.8414 58.72C65.8414 54.2773 67.1481 50.6933 69.7614 47.968C72.3748 45.2427 75.8281 43.88 80.1214 43.88C84.4521 43.88 87.9241 45.2427 90.5374 47.968C93.1881 50.6933 94.5134 54.2773 94.5134 58.72C94.5134 63.1627 93.1881 66.7467 90.5374 69.472C87.9241 72.1973 84.4521 73.56 80.1214 73.56C75.8281 73.56 72.3748 72.1973 69.7614 69.472C67.1481 66.7467 65.8414 63.1627 65.8414 58.72ZM73.6814 66.392C75.5481 68.072 77.7134 68.912 80.1774 68.912C82.6414 68.912 84.7881 68.072 86.6174 66.392C88.4841 64.6747 89.4174 62.1173 89.4174 58.72C89.4174 55.2853 88.4841 52.728 86.6174 51.048C84.7881 49.368 82.6414 48.528 80.1774 48.528C77.7134 48.528 75.5481 49.368 73.6814 51.048C71.8521 52.728 70.9374 55.2853 70.9374 58.72C70.9374 62.1173 71.8521 64.6747 73.6814 66.392ZM110.888 48.528C108.498 48.528 106.725 48.9013 105.568 49.648C104.448 50.3573 103.888 51.272 103.888 52.392C103.888 53.4747 104.466 54.3147 105.624 54.912C106.781 55.5093 108.181 55.9947 109.824 56.368C111.504 56.704 113.165 57.1333 114.808 57.656C116.45 58.1787 117.85 59.0747 119.008 60.344C120.165 61.6133 120.744 63.3493 120.744 65.552C120.744 67.7547 119.792 69.64 117.888 71.208C116.021 72.776 113.221 73.56 109.488 73.56C105.792 73.56 102.413 72.72 99.3518 71.04V66.168H99.6318C102.656 67.96 105.978 68.856 109.6 68.856C113.744 68.856 115.816 67.5307 115.816 64.88C115.816 64.0213 115.237 63.3307 114.08 62.808C112.922 62.248 111.522 61.7813 109.88 61.408C108.237 61.0347 106.594 60.5867 104.952 60.064C103.309 59.5413 101.909 58.664 100.752 57.432C99.5944 56.2 99.0158 54.632 99.0158 52.728C99.0158 50.1147 99.9491 47.9867 101.816 46.344C103.72 44.7013 106.296 43.88 109.544 43.88C112.792 43.88 115.816 44.4027 118.616 45.448V50.096H118.224C115.722 49.0507 113.277 48.528 110.888 48.528ZM141.378 48.808H133.258V65.72C133.258 67.288 133.687 68.2587 134.546 68.632C135.255 68.9307 136.17 69.08 137.29 69.08C138.41 69.08 139.642 68.7813 140.986 68.184H141.378V72.328C139.81 73.1493 138.13 73.56 136.338 73.56C130.887 73.56 128.162 71.096 128.162 66.168V48.808H122.842V48.472L133.258 38.28V44.44H141.378V48.808Z" fill="#0500E6" fill-opacity="0.9"/>
<path d="M147.19 46.008C150.438 44.5893 153.91 43.88 157.606 43.88C161.34 43.88 164.196 44.9627 166.174 47.128C168.153 49.2933 169.142 51.888 169.142 54.912V73H164.662L164.046 69.416H163.878C161.19 72.1787 157.737 73.56 153.518 73.56C150.98 73.56 148.814 72.7947 147.022 71.264C145.268 69.7333 144.39 67.6427 144.39 64.992C144.39 62.3413 145.473 60.1947 147.638 58.552C149.841 56.9093 153.052 56.088 157.27 56.088H164.046V55.64C164.046 53.176 163.43 51.4027 162.198 50.32C161.004 49.2373 158.913 48.696 155.926 48.696C152.94 48.696 150.14 49.3307 147.526 50.6H147.19V46.008ZM164.046 64.88V60.176H157.942C152.305 60.176 149.486 61.6693 149.486 64.656C149.486 67.6053 151.465 69.08 155.422 69.08C157.065 69.08 158.652 68.688 160.182 67.904C161.713 67.0827 163.001 66.0747 164.046 64.88ZM192.197 37.16C190.815 36.6747 189.453 36.432 188.109 36.432C186.802 36.432 185.757 36.7867 184.973 37.496C184.226 38.2053 183.853 39.4933 183.853 41.36V44.44H192.589V48.808H183.853V73H178.757V48.808H173.549V44.44H178.757V41.192C178.757 37.944 179.578 35.536 181.221 33.968C182.901 32.3627 184.786 31.56 186.877 31.56C189.005 31.56 190.909 32.0267 192.589 32.96V37.16H192.197ZM221.87 58.72V60.512H200.254C200.553 63.1253 201.523 65.16 203.166 66.616C204.809 68.072 207.291 68.8 210.614 68.8C213.974 68.8 217.073 67.8667 219.91 66H220.19V70.928C217.054 72.6827 213.358 73.56 209.102 73.56C204.883 73.56 201.486 72.272 198.91 69.696C196.371 67.0827 195.102 63.5733 195.102 59.168C195.102 54.7253 196.241 51.0667 198.518 48.192C200.795 45.3173 204.118 43.88 208.486 43.88C212.854 43.88 216.177 45.3173 218.454 48.192C220.731 51.0667 221.87 54.576 221.87 58.72ZM200.254 56.368H216.774C216.625 53.68 215.71 51.6453 214.03 50.264C212.387 48.8827 210.539 48.192 208.486 48.192C206.433 48.192 204.585 48.8827 202.942 50.264C201.299 51.6453 200.403 53.68 200.254 56.368Z" fill="black" fill-opacity="0.84"/>
</svg>
